<svg id="hero-icon" xmlns="http://www.w3.org/2000/svg" width="93.989" height="93.994" viewBox="0 0 93.989 93.994">
  <path id="Path_1" data-name="Path 1" d="M416.58,10.564a3.063,3.063,0,0,0,2.452,1.226,2.855,2.855,0,0,1,2.855,2.855,2.994,2.994,0,0,0,2.8,3.016,2.937,2.937,0,0,0,3.078-2.933,2.855,2.855,0,0,1,2.855-2.937,2.994,2.994,0,0,0,3.016-2.8,2.938,2.938,0,0,0-3.016-3.078,2.854,2.854,0,0,1-2.855-2.855A3.071,3.071,0,0,0,426.955.99a2.923,2.923,0,0,0-5.068,1.99,2.935,2.935,0,0,1-2.937,2.937A2.928,2.928,0,0,0,416.58,10.564Z" transform="translate(-339.649 -0.035)" fill="#ebdf00"/>
  <path id="Path_2" data-name="Path 2" d="M22.611,317.911a2.854,2.854,0,0,1-2.854-2.854,2.992,2.992,0,0,0-2.8-3.017,2.937,2.937,0,0,0-3.079,2.934,2.855,2.855,0,0,1-2.854,2.937,2.992,2.992,0,0,0-3.017,2.8,2.937,2.937,0,0,0,2.934,3.079,2.855,2.855,0,0,1,2.937,2.854,2.992,2.992,0,0,0,2.8,3.017,2.937,2.937,0,0,0,3.079-2.934,2.937,2.937,0,0,1,2.937-2.937,2.937,2.937,0,0,0,2.934-3.079,2.992,2.992,0,0,0-3.017-2.8Z" transform="translate(-6.541 -254.756)" fill="#ebdf00"/>
  <path id="Path_3" data-name="Path 3" d="M41.353,13.232a.914.914,0,0,0,.328-1.185A22.031,22.031,0,1,0,22.042,44.063c.116,0,.377,0,.65-.012a.915.915,0,0,0,.89-.856A38.209,38.209,0,0,1,41.353,13.232Zm-19.311,1.46A7.35,7.35,0,0,0,14.7,22.035a2.937,2.937,0,0,1-5.874,0A13.232,13.232,0,0,1,22.042,8.818a2.937,2.937,0,1,1,0,5.874Z" transform="translate(-0.015 0)" fill="#006cff"/>
  <path id="Path_4" data-name="Path 4" d="M152.163,336.037a16.154,16.154,0,1,0,15.088,21.938A16.154,16.154,0,0,0,152.163,336.037Zm2.37,10.55a2.937,2.937,0,0,1-2.37,1.2,4.412,4.412,0,0,0-4.406,4.406,2.937,2.937,0,1,1-5.874,0,10.292,10.292,0,0,1,10.28-10.28A2.942,2.942,0,0,1,154.533,346.587Z" transform="translate(-111.045 -274.351)" fill="#006cff"/>
  <path id="Path_5" data-name="Path 5" d="M193.636,135.706a.921.921,0,0,0,.986.855,32.309,32.309,0,1,0-32.67-20.779.915.915,0,0,0,1.207.519A22.052,22.052,0,0,1,193.6,135.309S193.619,135.472,193.636,135.706Zm-4.4-48.984a17.644,17.644,0,0,0-17.623,17.623,2.937,2.937,0,1,1-5.874,0,23.522,23.522,0,0,1,23.5-23.5,2.937,2.937,0,1,1,0,5.874Z" transform="translate(-130.498 -58.813)" fill="#0e1b50"/>
</svg>
